#!OML:ASF I:\Actors\actors\Patient Classification 1\Patient 1\Session 1\Subject1.ASF
:FULLY-SPECIFIED
:DEGREES
831
root 0.730658 17.4526 9.99081 10.0491 6.12571 -8.35881
lowerback -3.48439 1.23592 5.97343
upperback -12.5246 2.01444 1.19261
thorax -11.3581 0.481556 -2.16086
lowerneck -11.7181 1.11518 2.19398
upperneck 24.327 1.58731 -1.76296
head 9.64642 0.762457 -0.795556
rclavicle 4.57205e-015 5.96354e-015
rhumerus -54.4766 -27.1498 -56.1285
rradius 25.8117
rwrist 44.9074
rhand 6.13816 -29.808
rfingers 7.12502
rthumb 31.455 -57.1218
lclavicle 4.57205e-015 5.96354e-015
lhumerus 23.3477 -12.2042 60.5547
lradius 146.552
lwrist 44.9207
lhand -2.7491 -10.1768
lfingers 7.12502
lthumb 22.9547 18.4766
rfemur -0.587098 23.7171 27.0525
rtibia 1.22936
rfoot -17.5644 -32.0083
rtoes 10.0262
lfemur 5.53431 -47.8023 -12.6535
ltibia -5.24773
lfoot -18.0512 50.3189
ltoes 4.4877
832
root 0.732042 17.4525 9.99188 10.0789 6.09978 -8.37333
lowerback -4.08155 1.13089 5.70224
upperback -12.1055 1.81672 1.47145
thorax -10.5339 0.457942 -1.68543
lowerneck -12.0815 1.23405 2.13734
upperneck 24.0976 1.79596 -1.92818
head 9.64018 0.832884 -0.816529
rclavicle -5.46658e-015 -1.59028e-015
rhumerus -53.4062 -27.2169 -56.4266
rradius 25.6499
rwrist 44.9934
rhand 6.06299 -29.8304
rfingers 7.12502
rthumb 31.3833 -57.1581
lclavicle -5.46658e-015 -1.59028e-015
lhumerus 23.7539 -11.5732 60.5661
lradius 146.509
lwrist 44.8803
lhand -2.83872 -10.3003
lfingers 7.12502
lthumb 22.8687 18.3637
rfemur -0.610606 23.7218 27.0486
rtibia 1.19772
rfoot -17.4904 -32.012
rtoes 9.892
lfemur 5.50303 -47.8755 -12.6402
ltibia -5.20614
lfoot -18.0818 50.3694
ltoes 4.56818
833
root 0.733126 17.4529 9.99398 10.0721 6.10024 -8.39492
lowerback -3.51104 1.27536 6.07988
upperback -12.5204 2.06754 1.17871
thorax -11.3314 0.496834 -2.23714
lowerneck -11.8107 1.06648 2.14661
upperneck 24.487 1.49865 -1.64186
head 9.71767 0.73006 -0.755952
rclavicle 4.17448e-015 1.70955e-014
rhumerus -54.4675 -27.2361 -56.0562
rradius 25.7762
rwrist 44.89
rhand 6.07374 -29.8591
rfingers 7.12502
rthumb 31.3936 -57.1848
lclavicle 4.17448e-015 1.70955e-014
lhumerus 23.4317 -12.2549 60.524
lradius 146.549
lwrist 45.071
lhand -2.97814 -10.3644
lfingers 7.12502
lthumb 22.7349 18.3161
rfemur -0.583767 23.7251 27.0802
rtibia 1.17779
rfoot -17.5056 -32.0156
rtoes 9.84253
lfemur 5.55301 -47.9418 -12.6572
ltibia -5.21636
lfoot -18.0734 50.4284
ltoes 4.60166
834
root 0.733661 17.4536 9.99596 10.0703 6.10446 -8.38621
lowerback -3.52496 1.26527 6.07595
upperback -12.514 2.05307 1.18847
thorax -11.3171 0.491282 -2.2232
lowerneck -11.8561 1.05743 2.12424
upperneck 24.5826 1.47699 -1.58603
head 9.75935 0.724076 -0.735361
rclavicle -2.22639e-014 -1.19271e-015
rhumerus -54.4542 -27.2501 -56.0228
rradius 25.7893
rwrist 44.9345
rhand 6.1712 -29.8462
rfingers 7.12502
rthumb 31.4864 -57.1538
lclavicle -2.22639e-014 -1.19271e-015
lhumerus 23.4306 -12.2261 60.5088
lradius 146.542
lwrist 45.1371
lhand -3.05435 -10.443
lfingers 7.12502
lthumb 22.6618 18.2465
rfemur -0.562201 23.7839 27.0809
rtibia 1.17252
rfoot -17.5986 -32.0594
rtoes 10.0176
lfemur 5.55287 -47.8614 -12.6536
ltibia -5.24002
lfoot -17.9703 50.3597
ltoes 4.47102
835
root 0.733592 17.454 9.99657 10.0962 6.08417 -8.37321
lowerback -4.1107 1.12267 5.73444
upperback -12.1046 1.80527 1.48925
thorax -10.5168 0.450712 -1.68298
lowerneck -12.1856 1.2157 2.09369
upperneck 24.3583 1.74426 -1.77728
head 9.74972 0.821155 -0.763026
rclavicle 2.9122e-014 -6.36111e-015
rhumerus -53.3928 -27.294 -56.3051
rradius 25.6651
rwrist 45.1275
rhand 6.25731 -29.7829
rfingers 7.12502
rthumb 31.5685 -57.0744
lclavicle 2.9122e-014 -6.36111e-015
lhumerus 23.7753 -11.5408 60.5368
lradius 146.49
lwrist 45.0938
lhand -3.06125 -10.4683
lfingers 7.12502
lthumb 22.6552 18.222
rfemur -0.59811 23.8044 27.0534
rtibia 1.20171
rfoot -17.6478 -32.04
rtoes 10.1639
lfemur 5.49837 -47.8132 -12.633
ltibia -5.21921
lfoot -17.9215 50.3407
ltoes 4.40937
